# AST/ASF file generated using VICON BodyLanguage
# -----------------------------------------------
:version 1.10
:name VICON
:units
  mass 1.0
  length 0.45
  angle deg
:documentation
   .ast/.asf automatically generated from VICON data using
   VICON BodyBuilder and BodyLanguage model FoxedUp or BRILLIANT.MOD
:root
   order TX TY TZ RX RY RZ
   axis XYZ
   position 0 0 0  
   orientation 0 0 0 
:bonedata
  begin
     id 1 
     name lhipjoint
     direction 0.690799 -0.707083 0.151096 
     length 2.54797 
     axis 0 0 0  XYZ
  end
  begin
     id 2 
     name lfemur
     direction 0.34202 -0.939693 0  
     length 7.21646  
     axis 0 0 20  XYZ
    dof rx ry rz
    limits (-160.0 20.0)
           (-70.0 70.0)
           (-60.0 70.0)
  end
  begin
     id 3 
     name ltibia
     direction 0.34202 -0.939693 0   
     length 8.16759   
     axis 0 0 20   XYZ
    dof rx
    limits (-10.0 170.0)
  end
  begin
     id 4 
     name lfoot
     direction 0.0487203 -0.133858 0.989802   
     length 1.93375   
     axis -90 7.62852e-016 20   XYZ
    dof rx rz
    limits (-45.0 90.0)
           (-70.0 20.0)
  end
  begin
     id 5 
     name ltoes
     direction 1.53453e-011 -4.21783e-011 1   
     length 0.979747   
     axis -90 7.62852e-016 20   XYZ
    dof rx
    limits (-90.0 20.0)
  end
  begin
     id 6 
     name rhipjoint
     direction -0.694693 -0.703425 0.150315   
     length 2.56122  
     axis 0 0 0  XYZ 
  end
  begin
     id 7 
     name rfemur
     direction -0.34202 -0.939693 0   
     length 7.36786   
     axis 0 0 -20   XYZ
    dof rx ry rz
    limits (-160.0 20.0)
           (-70.0 70.0)
           (-70.0 60.0)
  end
  begin
     id 8 
     name rtibia
     direction -0.34202 -0.939693 0   
     length 8.07288   
     axis 0 0 -20   XYZ
    dof rx
    limits (-10.0 170.0)
 end
 begin
     id 9 
     name rfoot
     direction -0.0428397 -0.117701 0.992125   
     length 1.88295  
     axis -90 -7.62852e-016 -20   XYZ
    dof rx rz
    limits (-45.0 90.0)
           (-20.0 70.0)
  end
  begin
     id 10 
     name rtoes
     direction -1.53456e-011 -4.2187e-011 1   
     length 0.955578   
     axis -90 -7.62852e-016 -20   XYZ
    dof rx
    limits (-90.0 20.0)
  end
  begin
     id 11 
     name lowerback
     direction 0.0288145 0.999398 -0.0193241   
     length 1.92149   
     axis 0 0 0   XYZ
    dof rx ry rz
    limits (-20.0 45.0)
           (-30.0 30.0)
           (-30.0 30.0)
  end
  begin
     id 12 
     name upperback
     direction 0.0233784 0.998099 0.0570278   
     length 1.90435   
     axis 0 0 0   XYZ
    dof rx ry rz
    limits (-20.0 45.0)
           (-30.0 30.0)
           (-30.0 30.0)
  end
  begin
     id 13 
     name thorax
     direction 0.0096694 0.997833 0.0650817   
     length 1.9111   
     axis 0 0 0   XYZ
    dof rx ry rz
    limits (-20.0 45.0)
           (-30.0 30.0)
           (-30.0 30.0)
  end
  begin
     id 14 
     name lowerneck
     direction 0.00516803 0.999916 0.0118722   
     length 1.74664   
     axis 0 0 0   XYZ
    dof rx ry rz
    limits (-20.0 45.0)
           (-30.0 30.0)
           (-30.0 30.0)
  end
  begin
     id 15 
     name upperneck
     direction -0.0510851 0.996117 -0.071696   
     length 1.68498   
     axis 0 0 0   XYZ
    dof rx ry rz
    limits (-20.0 45.0)
           (-30.0 30.0)
           (-30.0 30.0)
  end
  begin
     id 16
     name head
     direction -0.019188 0.999436 -0.0275702  
     length 1.83483  
     axis 0 0 0   XYZ
    dof rx ry rz
    limits (-20.0 45.0)
           (-30.0 30.0)
           (-30.0 30.0)
  end
  begin
     id 17 
     name lclavicle
     direction 0.967006 0.248456 -0.0562957  
     length 3.39395  
     axis 0 0 0   XYZ
    dof ry rz
    limits (-20.0 10.0)
           (0.0 20.0)
  end
  begin
     id 18 
     name lhumerus
     direction 1 -4.48962e-011 -5.62711e-019   
     length 5.24318   
     axis 180 -30 -90   XYZ
    dof rx ry rz
    limits (-60.0 90.0)
           (-90.0 90.0)
           (-90.0 90.0)
  end
  begin
     id 19
     name lradius
     direction 1 -4.48966e-011 7.90625e-027   
     length 2.98999   
     axis 180 -30 -90   XYZ
    dof rx
    limits (-10.0 170.0)
  end
  begin
     id 20
     name lwrist
     direction 1 -4.48959e-011 1.61068e-026   
     length 1.49499   
     axis -9.31229e-015 90 90   XYZ
    dof ry
    limits (-180.0 0.0)
 end
  begin
     id 21 
     name lhand
     direction 1 -4.49017e-011 3.22136e-026   
     length 0.726745   
     axis -2.0555e-014 90 90   XYZ
    dof rx rz
    limits (-90.0 90.0)
           (-45.0 45.0)
  end
  begin
     id 22 
     name lfingers
     direction 1 -4.4898e-011 6.44272e-026   
     length 0.58592   
     axis -4.11101e-014 90 90   XYZ
    dof rx
    limits (0.0 90.0)
  end
  begin
     id 23
     name lthumb
     direction 0.707107 -6.34922e-011 0.707107   
     length 0.841268   
     axis -90 45 2.85299e-015   XYZ
    dof rx rz
    limits (-45.0 45.0)
           (-45.0 45.0)
  end
  begin
     id 24 
     name rclavicle
     direction -0.972232 0.230238 0.0419005   
     length 3.40416  
     axis 0 0 0   XYZ 
    dof ry rz
    limits (-10.0 20.0)
           (-20.0 0.0)
  end
  begin
     id 25 
     name rhumerus
     direction -1 -4.48976e-011 2.48487e-027  
     length 5.37045   
     axis 180 30 90   XYZ
    dof rx ry rz
    limits (-90.0 60.0)
           (-90.0 90.0)
           (-90.0 90.0)
  end
  begin
     id 26 
     name rradius
     direction -1 -4.48942e-011 7.87951e-027   
     length 2.92792   
     axis 180 30 90   XYZ
    dof rx
    limits (-10.0 170.0)
  end
  begin
     id 27 
     name rwrist
     direction -1 -4.48969e-011 1.61068e-026   
     length 1.46396   
     axis -9.31229e-015 -90 -90   XYZ
    dof ry
    limits (-180.0 0.0)
  end
  begin
     id 28
     name rhand
     direction -1 -4.49043e-011 3.22136e-026   
     length 0.784497   
     axis -2.0555e-014 -90 -90   XYZ
    dof rx rz
    limits (-90.0 90.0)
           (-45.0 45.0)
  end
  begin
     id 29
     name rfingers
     direction -1 -4.48823e-011 6.44272e-026   
     length 0.632482   
     axis -4.11101e-014 -90 -90   XYZ
    dof rx
    limits (0.0 90.0)
  end
  begin
     id 30
     name rthumb
     direction -0.707107 -6.34923e-011 0.707107   
     length 0.908121   
     axis -90 -45 -2.85299e-015   XYZ
    dof rx rz
    limits (-45.0 45.0)
           (-45.0 45.0)
  end
:hierarchy
  begin
    root lhipjoint rhipjoint lowerback
    lhipjoint lfemur
    lfemur ltibia
    ltibia lfoot
    lfoot ltoes
    rhipjoint rfemur
    rfemur rtibia
    rtibia rfoot
    rfoot rtoes
    lowerback upperback
    upperback thorax
    thorax lowerneck lclavicle rclavicle
    lowerneck upperneck
    upperneck head
    lclavicle lhumerus
    lhumerus lradius
    lradius lwrist
    lwrist lhand lthumb
    lhand lfingers
    rclavicle rhumerus
    rhumerus rradius
    rradius rwrist
    rwrist rhand rthumb
    rhand rfingers
  end

#!OML:ASF E:\Style6\Style6.ASF
:FULLY-SPECIFIED
:DEGREES
1391
root 0.427921 17.7786 -0.125134 11.1481 -13.7918 -2.25864
lowerback 0.646992 -0.836276 3.30699
upperback 11.7768 -1.71234 2.91813
thorax 12.3246 -0.723329 1.14957
lowerneck 11.0981 1.24266 1.246
upperneck -4.47439 1.10347 -9.85954
head -3.08585 0.968627 -3.27227
rclavicle -4.85035e-014 -3.57812e-015
rhumerus 24.7925 26.3578 -67.3419
rradius 37.8041
rwrist 30.0854
rhand -9.57724 4.16961
rfingers 7.12502
rthumb 16.3907 -25.1578
lclavicle -4.85035e-014 -3.57812e-015
lhumerus 24.7693 -28.8843 67.8013
lradius 34.9192
lwrist -10.3825
lhand -19.6185 26.2653
lfingers 7.12502
lthumb 6.70812 56.1391
rfemur -29.8515 7.12178 19.5324
rtibia 31.2777
rfoot -5.75166 -7.37876
rtoes -14.0765
lfemur -25.3869 1.1054 -16.9396
ltibia 36.4945
lfoot -12.8281 19.222
ltoes -14.7083
1392
root 0.431063 17.7618 -0.150399 10.9225 -13.8492 -2.28413
lowerback 0.863 -0.857967 3.2825
upperback 12.015 -1.7445 2.92556
thorax 12.4759 -0.742407 1.17396
lowerneck 11.0625 1.32579 1.06049
upperneck -4.65171 1.18369 -9.74022
head -3.13032 1.01093 -3.21127
rclavicle -6.71892e-014 8.34896e-015
rhumerus 25.5024 26.7368 -66.5575
rradius 37.9484
rwrist 29.3782
rhand -9.39046 3.98235
rfingers 7.12502
rthumb 16.5706 -25.3302
lclavicle -6.71892e-014 8.34896e-015
lhumerus 25.2055 -28.8256 67.2969
lradius 34.9651
lwrist -9.93757
lhand -19.5763 26.4371
lfingers 7.12502
lthumb 6.74886 56.3096
rfemur -29.9352 7.10758 19.5961
rtibia 31.7059
rfoot -5.94692 -7.31208
rtoes -12.7434
lfemur -25.4618 1.40729 -16.9292
ltibia 36.9308
lfoot -12.9232 18.9898
ltoes -14.8495
1393
root 0.433957 17.7431 -0.176507 10.7035 -13.9149 -2.35336
lowerback 1.11885 -0.78807 3.36961
upperback 12.2056 -1.64946 2.88926
thorax 12.5423 -0.68539 1.10072
lowerneck 11.0214 1.29043 1.18491
upperneck -4.71953 1.15348 -9.69877
head -3.14477 0.992908 -3.21742
rclavicle 2.46493e-014 5.48646e-014
rhumerus 25.9791 26.7394 -66.095
rradius 37.9717
rwrist 28.8723
rhand -9.13218 3.83318
rfingers 7.12502
rthumb 16.8192 -25.4584
lclavicle 2.46493e-014 5.48646e-014
lhumerus 25.708 -29.0968 66.6726
lradius 35.0469
lwrist -9.45397
lhand -19.5521 26.5312
lfingers 7.12502
lthumb 6.77221 56.4029
rfemur -30.0052 7.09259 19.7075
rtibia 32.1267
rfoot -6.17176 -7.18456
rtoes -11.0844
lfemur -25.5416 1.7238 -16.8708
ltibia 37.3474
lfoot -12.8052 18.8561
ltoes -15.7554
1394
root 0.436196 17.7256 -0.201967 10.5036 -13.977 -2.35968
lowerback 1.28639 -0.68561 3.40339
upperback 12.3894 -1.50975 2.83623
thorax 12.6566 -0.610262 1.04189
lowerneck 11.0115 1.16315 1.41237
upperneck -4.7584 1.0076 -9.77359
head -3.16159 0.9208 -3.26985
rclavicle -5.96354e-014 1.86858e-014
rhumerus 26.2496 26.5507 -65.7725
rradius 38.0395
rwrist 28.5382
rhand -8.9648 3.82208
rfingers 7.12502
rthumb 16.9803 -25.4557
lclavicle -5.96354e-014 1.86858e-014
lhumerus 26.2214 -29.3046 66.1554
lradius 35.113
lwrist -9.15641
lhand -19.3366 26.4708
lfingers 7.12502
lthumb 6.9802 56.3357
rfemur -30.1074 6.97789 19.7681
rtibia 32.55
rfoot -6.29536 -6.97186
rtoes -10.8027
lfemur -25.6577 1.98532 -16.8709
ltibia 37.7541
lfoot -12.7762 18.7732
ltoes -16.4673
1395
root 0.438617 17.7079 -0.228145 10.2563 -14.0038 -2.38191
lowerback 1.49231 -0.62094 3.43964
upperback 12.6191 -1.42391 2.80242
thorax 12.8041 -0.56225 0.998435
lowerneck 10.8707 1.10197 1.51516
upperneck -4.73376 0.947245 -9.73975
head -3.13398 0.883363 -3.27079
rclavicle -2.94201e-014 1.11319e-014
rhumerus 26.6024 26.4124 -65.3722
rradius 38.1484
rwrist 28.147
rhand -8.67488 3.86995
rfingers 7.12502
rthumb 17.2594 -25.3836
lclavicle -2.94201e-014 1.11319e-014
lhumerus 26.7731 -29.3438 65.6585
lradius 35.1484
lwrist -8.97082
lhand -19.0246 26.3951
lfingers 7.12502
lthumb 7.28144 56.2499
rfemur -30.1755 6.85753 19.8565
rtibia 32.9986
rfoot -6.39605 -6.80421
rtoes -10.8741
lfemur -25.7158 2.20198 -16.8411
ltibia 38.1695
lfoot -12.9115 18.6372
ltoes -16.4736
